<mxfile host="app.diagrams.net" modified="2023-12-23T15:12:59.160Z" agent="Mozilla/5.0 (Windows NT 10.0; Win64; x64) AppleWebKit/537.36 (KHTML, like Gecko) Chrome/120.0.0.0 Safari/537.36" etag="QwXlAYisQtML-0kBlO9i" version="22.1.11" type="device">
  <diagram name="第 1 页" id="o8la4PUTTN5CodA8iXIN">
    <mxGraphModel dx="1050" dy="1734" grid="1" gridSize="10" guides="1" tooltips="1" connect="1" arrows="1" fold="1" page="1" pageScale="1" pageWidth="827" pageHeight="1169" math="0" shadow="0">
      <root>
        <mxCell id="0" />
        <mxCell id="1" parent="0" />
        <mxCell id="Emmt1LBNCp_w7vgsa7Th-2" value="Actor" style="shape=umlActor;verticalLabelPosition=bottom;verticalAlign=top;html=1;outlineConnect=0;" vertex="1" parent="1">
          <mxGeometry x="80" y="230" width="30" height="60" as="geometry" />
        </mxCell>
        <mxCell id="Emmt1LBNCp_w7vgsa7Th-3" value="Actor" style="shape=umlActor;verticalLabelPosition=bottom;verticalAlign=top;html=1;outlineConnect=0;" vertex="1" parent="1">
          <mxGeometry x="780" y="230" width="30" height="60" as="geometry" />
        </mxCell>
        <mxCell id="Emmt1LBNCp_w7vgsa7Th-4" value="" style="endArrow=none;html=1;rounded=0;" edge="1" parent="1" source="Emmt1LBNCp_w7vgsa7Th-2" target="Emmt1LBNCp_w7vgsa7Th-5">
          <mxGeometry width="50" height="50" relative="1" as="geometry">
            <mxPoint x="110" y="260" as="sourcePoint" />
            <mxPoint x="280" y="100" as="targetPoint" />
            <Array as="points" />
          </mxGeometry>
        </mxCell>
        <mxCell id="Emmt1LBNCp_w7vgsa7Th-5" value="&lt;font style=&quot;font-size: 20px;&quot;&gt;購物車管理&lt;/font&gt;" style="ellipse;whiteSpace=wrap;html=1;" vertex="1" parent="1">
          <mxGeometry x="210" y="-100" width="140" height="80" as="geometry" />
        </mxCell>
        <mxCell id="Emmt1LBNCp_w7vgsa7Th-6" value="" style="endArrow=none;html=1;rounded=0;entryX=0;entryY=1;entryDx=0;entryDy=0;" edge="1" parent="1" source="Emmt1LBNCp_w7vgsa7Th-2" target="Emmt1LBNCp_w7vgsa7Th-7">
          <mxGeometry width="50" height="50" relative="1" as="geometry">
            <mxPoint x="160" y="310" as="sourcePoint" />
            <mxPoint x="320" y="260" as="targetPoint" />
            <Array as="points" />
          </mxGeometry>
        </mxCell>
        <mxCell id="Emmt1LBNCp_w7vgsa7Th-7" value="搜索瀏覽商品" style="ellipse;whiteSpace=wrap;html=1;" vertex="1" parent="1">
          <mxGeometry x="220" width="140" height="80" as="geometry" />
        </mxCell>
        <mxCell id="Emmt1LBNCp_w7vgsa7Th-8" value="" style="endArrow=none;html=1;rounded=0;" edge="1" parent="1" source="Emmt1LBNCp_w7vgsa7Th-2" target="Emmt1LBNCp_w7vgsa7Th-11">
          <mxGeometry width="50" height="50" relative="1" as="geometry">
            <mxPoint x="170" y="410" as="sourcePoint" />
            <mxPoint x="310" y="280" as="targetPoint" />
            <Array as="points" />
          </mxGeometry>
        </mxCell>
        <mxCell id="Emmt1LBNCp_w7vgsa7Th-9" value="填寫/確認訂單" style="ellipse;whiteSpace=wrap;html=1;fontSize=20;" vertex="1" parent="1">
          <mxGeometry x="220" y="90" width="140" height="80" as="geometry" />
        </mxCell>
        <mxCell id="Emmt1LBNCp_w7vgsa7Th-10" value="" style="endArrow=none;html=1;rounded=0;exitX=0.5;exitY=0.5;exitDx=0;exitDy=0;exitPerimeter=0;" edge="1" parent="1" source="Emmt1LBNCp_w7vgsa7Th-2" target="Emmt1LBNCp_w7vgsa7Th-9">
          <mxGeometry width="50" height="50" relative="1" as="geometry">
            <mxPoint x="140" y="510" as="sourcePoint" />
            <mxPoint x="280" y="380" as="targetPoint" />
            <Array as="points" />
          </mxGeometry>
        </mxCell>
        <mxCell id="Emmt1LBNCp_w7vgsa7Th-11" value="&lt;font style=&quot;font-size: 20px;&quot;&gt;登陸\註冊&lt;/font&gt;" style="ellipse;whiteSpace=wrap;html=1;" vertex="1" parent="1">
          <mxGeometry x="410" y="330" width="140" height="80" as="geometry" />
        </mxCell>
        <mxCell id="Emmt1LBNCp_w7vgsa7Th-12" value="" style="endArrow=none;html=1;rounded=0;" edge="1" parent="1" source="Emmt1LBNCp_w7vgsa7Th-2" target="Emmt1LBNCp_w7vgsa7Th-13">
          <mxGeometry width="50" height="50" relative="1" as="geometry">
            <mxPoint x="150" y="570" as="sourcePoint" />
            <mxPoint x="290" y="440" as="targetPoint" />
            <Array as="points" />
          </mxGeometry>
        </mxCell>
        <mxCell id="Emmt1LBNCp_w7vgsa7Th-13" value="&lt;font style=&quot;font-size: 20px;&quot;&gt;選擇支付方式&lt;/font&gt;" style="ellipse;whiteSpace=wrap;html=1;" vertex="1" parent="1">
          <mxGeometry x="200" y="190" width="140" height="80" as="geometry" />
        </mxCell>
        <mxCell id="Emmt1LBNCp_w7vgsa7Th-14" value="" style="endArrow=none;html=1;rounded=0;" edge="1" parent="1" source="Emmt1LBNCp_w7vgsa7Th-2" target="Emmt1LBNCp_w7vgsa7Th-15">
          <mxGeometry width="50" height="50" relative="1" as="geometry">
            <mxPoint x="140" y="680" as="sourcePoint" />
            <mxPoint x="280" y="550" as="targetPoint" />
            <Array as="points" />
          </mxGeometry>
        </mxCell>
        <mxCell id="Emmt1LBNCp_w7vgsa7Th-15" value="&lt;font style=&quot;font-size: 20px;&quot;&gt;查詢訂單&lt;/font&gt;" style="ellipse;whiteSpace=wrap;html=1;" vertex="1" parent="1">
          <mxGeometry x="200" y="320" width="140" height="80" as="geometry" />
        </mxCell>
        <mxCell id="Emmt1LBNCp_w7vgsa7Th-16" value="" style="endArrow=none;html=1;rounded=0;" edge="1" parent="1" source="Emmt1LBNCp_w7vgsa7Th-11" target="Emmt1LBNCp_w7vgsa7Th-3">
          <mxGeometry width="50" height="50" relative="1" as="geometry">
            <mxPoint x="510" y="320" as="sourcePoint" />
            <mxPoint x="560" y="270" as="targetPoint" />
            <Array as="points" />
          </mxGeometry>
        </mxCell>
        <mxCell id="Emmt1LBNCp_w7vgsa7Th-17" value="添加商品到購物車" style="ellipse;whiteSpace=wrap;html=1;" vertex="1" parent="1">
          <mxGeometry x="430" y="-140" width="120" height="60" as="geometry" />
        </mxCell>
        <mxCell id="Emmt1LBNCp_w7vgsa7Th-18" value="瀏覽購物車商品" style="ellipse;whiteSpace=wrap;html=1;" vertex="1" parent="1">
          <mxGeometry x="430" y="-20" width="120" height="60" as="geometry" />
        </mxCell>
        <mxCell id="Emmt1LBNCp_w7vgsa7Th-19" value="刪除購物車商品" style="ellipse;whiteSpace=wrap;html=1;" vertex="1" parent="1">
          <mxGeometry x="430" y="-80" width="120" height="60" as="geometry" />
        </mxCell>
        <mxCell id="Emmt1LBNCp_w7vgsa7Th-29" value="" style="endArrow=none;dashed=1;html=1;rounded=0;startArrow=open;startFill=0;" edge="1" parent="1" source="Emmt1LBNCp_w7vgsa7Th-17" target="Emmt1LBNCp_w7vgsa7Th-5">
          <mxGeometry width="50" height="50" relative="1" as="geometry">
            <mxPoint x="320" y="32" as="sourcePoint" />
            <mxPoint x="410" y="-80" as="targetPoint" />
          </mxGeometry>
        </mxCell>
        <mxCell id="Emmt1LBNCp_w7vgsa7Th-30" value="包食" style="edgeLabel;html=1;align=center;verticalAlign=middle;resizable=0;points=[];" vertex="1" connectable="0" parent="Emmt1LBNCp_w7vgsa7Th-29">
          <mxGeometry x="-0.0769" y="1" relative="1" as="geometry">
            <mxPoint as="offset" />
          </mxGeometry>
        </mxCell>
        <mxCell id="Emmt1LBNCp_w7vgsa7Th-32" value="" style="endArrow=none;dashed=1;html=1;rounded=0;startArrow=open;startFill=0;" edge="1" parent="1" source="Emmt1LBNCp_w7vgsa7Th-19" target="Emmt1LBNCp_w7vgsa7Th-5">
          <mxGeometry width="50" height="50" relative="1" as="geometry">
            <mxPoint x="460" y="-78" as="sourcePoint" />
            <mxPoint x="300" y="12" as="targetPoint" />
          </mxGeometry>
        </mxCell>
        <mxCell id="Emmt1LBNCp_w7vgsa7Th-33" value="包食" style="edgeLabel;html=1;align=center;verticalAlign=middle;resizable=0;points=[];" vertex="1" connectable="0" parent="Emmt1LBNCp_w7vgsa7Th-32">
          <mxGeometry x="-0.0769" y="1" relative="1" as="geometry">
            <mxPoint as="offset" />
          </mxGeometry>
        </mxCell>
        <mxCell id="Emmt1LBNCp_w7vgsa7Th-34" value="" style="endArrow=none;dashed=1;html=1;rounded=0;startArrow=open;startFill=0;" edge="1" parent="1" source="Emmt1LBNCp_w7vgsa7Th-18" target="Emmt1LBNCp_w7vgsa7Th-5">
          <mxGeometry width="50" height="50" relative="1" as="geometry">
            <mxPoint x="470" y="-68" as="sourcePoint" />
            <mxPoint x="310" y="22" as="targetPoint" />
          </mxGeometry>
        </mxCell>
        <mxCell id="Emmt1LBNCp_w7vgsa7Th-35" value="包食" style="edgeLabel;html=1;align=center;verticalAlign=middle;resizable=0;points=[];" vertex="1" connectable="0" parent="Emmt1LBNCp_w7vgsa7Th-34">
          <mxGeometry x="-0.0769" y="1" relative="1" as="geometry">
            <mxPoint as="offset" />
          </mxGeometry>
        </mxCell>
        <mxCell id="Emmt1LBNCp_w7vgsa7Th-36" value="" style="endArrow=none;html=1;rounded=0;" edge="1" parent="1" target="Emmt1LBNCp_w7vgsa7Th-37" source="Emmt1LBNCp_w7vgsa7Th-2">
          <mxGeometry width="50" height="50" relative="1" as="geometry">
            <mxPoint x="110" y="350" as="sourcePoint" />
            <mxPoint x="280" y="631" as="targetPoint" />
            <Array as="points" />
          </mxGeometry>
        </mxCell>
        <mxCell id="Emmt1LBNCp_w7vgsa7Th-37" value="&lt;font style=&quot;font-size: 20px;&quot;&gt;刪除訂單&lt;/font&gt;" style="ellipse;whiteSpace=wrap;html=1;" vertex="1" parent="1">
          <mxGeometry x="200" y="401" width="140" height="80" as="geometry" />
        </mxCell>
        <mxCell id="Emmt1LBNCp_w7vgsa7Th-38" value="" style="endArrow=none;html=1;rounded=0;" edge="1" parent="1" target="Emmt1LBNCp_w7vgsa7Th-39" source="Emmt1LBNCp_w7vgsa7Th-2">
          <mxGeometry width="50" height="50" relative="1" as="geometry">
            <mxPoint x="110" y="430" as="sourcePoint" />
            <mxPoint x="280" y="711" as="targetPoint" />
            <Array as="points" />
          </mxGeometry>
        </mxCell>
        <mxCell id="Emmt1LBNCp_w7vgsa7Th-39" value="&lt;span style=&quot;font-size: 20px;&quot;&gt;用戶退出&lt;/span&gt;" style="ellipse;whiteSpace=wrap;html=1;" vertex="1" parent="1">
          <mxGeometry x="200" y="481" width="140" height="80" as="geometry" />
        </mxCell>
        <mxCell id="Emmt1LBNCp_w7vgsa7Th-40" value="" style="endArrow=none;html=1;rounded=0;exitX=0.5;exitY=0.5;exitDx=0;exitDy=0;exitPerimeter=0;" edge="1" parent="1" target="Emmt1LBNCp_w7vgsa7Th-41" source="Emmt1LBNCp_w7vgsa7Th-2">
          <mxGeometry width="50" height="50" relative="1" as="geometry">
            <mxPoint x="110" y="510" as="sourcePoint" />
            <mxPoint x="280" y="791" as="targetPoint" />
            <Array as="points" />
          </mxGeometry>
        </mxCell>
        <mxCell id="Emmt1LBNCp_w7vgsa7Th-41" value="&lt;span style=&quot;font-size: 20px;&quot;&gt;查看、修改個人訊息&lt;/span&gt;" style="ellipse;whiteSpace=wrap;html=1;" vertex="1" parent="1">
          <mxGeometry x="200" y="561" width="140" height="80" as="geometry" />
        </mxCell>
        <mxCell id="Emmt1LBNCp_w7vgsa7Th-42" value="&lt;font style=&quot;font-size: 20px;&quot;&gt;修改零食信息&lt;/font&gt;" style="ellipse;whiteSpace=wrap;html=1;" vertex="1" parent="1">
          <mxGeometry x="540" y="110" width="140" height="80" as="geometry" />
        </mxCell>
        <mxCell id="Emmt1LBNCp_w7vgsa7Th-43" value="" style="endArrow=none;html=1;rounded=0;" edge="1" parent="1" source="Emmt1LBNCp_w7vgsa7Th-42" target="Emmt1LBNCp_w7vgsa7Th-3">
          <mxGeometry width="50" height="50" relative="1" as="geometry">
            <mxPoint x="640" y="100" as="sourcePoint" />
            <mxPoint x="850" y="164.11764705882342" as="targetPoint" />
            <Array as="points" />
          </mxGeometry>
        </mxCell>
        <mxCell id="Emmt1LBNCp_w7vgsa7Th-44" value="&lt;font style=&quot;font-size: 20px;&quot;&gt;刪除零食信息&lt;/font&gt;" style="ellipse;whiteSpace=wrap;html=1;" vertex="1" parent="1">
          <mxGeometry x="530" y="210" width="140" height="80" as="geometry" />
        </mxCell>
        <mxCell id="Emmt1LBNCp_w7vgsa7Th-45" value="" style="endArrow=none;html=1;rounded=0;" edge="1" parent="1" source="Emmt1LBNCp_w7vgsa7Th-44" target="Emmt1LBNCp_w7vgsa7Th-3">
          <mxGeometry width="50" height="50" relative="1" as="geometry">
            <mxPoint x="630" y="200" as="sourcePoint" />
            <mxPoint x="770" y="351" as="targetPoint" />
            <Array as="points" />
          </mxGeometry>
        </mxCell>
        <mxCell id="Emmt1LBNCp_w7vgsa7Th-46" value="&lt;font style=&quot;font-size: 20px;&quot;&gt;添加零食信息&lt;/font&gt;" style="ellipse;whiteSpace=wrap;html=1;" vertex="1" parent="1">
          <mxGeometry x="540" y="350" width="140" height="80" as="geometry" />
        </mxCell>
        <mxCell id="Emmt1LBNCp_w7vgsa7Th-47" value="" style="endArrow=none;html=1;rounded=0;entryX=0.5;entryY=0.5;entryDx=0;entryDy=0;entryPerimeter=0;" edge="1" parent="1" source="Emmt1LBNCp_w7vgsa7Th-46" target="Emmt1LBNCp_w7vgsa7Th-3">
          <mxGeometry width="50" height="50" relative="1" as="geometry">
            <mxPoint x="640" y="340" as="sourcePoint" />
            <mxPoint x="780" y="491" as="targetPoint" />
            <Array as="points" />
          </mxGeometry>
        </mxCell>
        <mxCell id="Emmt1LBNCp_w7vgsa7Th-48" value="&lt;font style=&quot;font-size: 20px;&quot;&gt;維護購物車&lt;/font&gt;" style="ellipse;whiteSpace=wrap;html=1;" vertex="1" parent="1">
          <mxGeometry x="540" y="444" width="140" height="80" as="geometry" />
        </mxCell>
        <mxCell id="Emmt1LBNCp_w7vgsa7Th-49" value="" style="endArrow=none;html=1;rounded=0;" edge="1" parent="1" source="Emmt1LBNCp_w7vgsa7Th-48" target="Emmt1LBNCp_w7vgsa7Th-3">
          <mxGeometry width="50" height="50" relative="1" as="geometry">
            <mxPoint x="640" y="434" as="sourcePoint" />
            <mxPoint x="780" y="585" as="targetPoint" />
            <Array as="points" />
          </mxGeometry>
        </mxCell>
        <mxCell id="Emmt1LBNCp_w7vgsa7Th-50" value="&lt;font style=&quot;font-size: 20px;&quot;&gt;管理留言&lt;/font&gt;" style="ellipse;whiteSpace=wrap;html=1;" vertex="1" parent="1">
          <mxGeometry x="550" y="530.5" width="140" height="80" as="geometry" />
        </mxCell>
        <mxCell id="Emmt1LBNCp_w7vgsa7Th-51" value="" style="endArrow=none;html=1;rounded=0;entryX=0.5;entryY=0.5;entryDx=0;entryDy=0;entryPerimeter=0;" edge="1" parent="1" source="Emmt1LBNCp_w7vgsa7Th-50" target="Emmt1LBNCp_w7vgsa7Th-3">
          <mxGeometry width="50" height="50" relative="1" as="geometry">
            <mxPoint x="650" y="520.5" as="sourcePoint" />
            <mxPoint x="790" y="671.5" as="targetPoint" />
            <Array as="points" />
          </mxGeometry>
        </mxCell>
      </root>
    </mxGraphModel>
  </diagram>
</mxfile>
